inDegrees=no
num_controls=7
num_derivatives=13
num_iterations=196
num_multipliers=7
num_parameters=0
num_slacks=7
num_states=26
objective=6.466702
objective_accelerations=0.740736
objective_balance=0.040280
objective_effort=0.563617
objective_height=5.099559
objective_ligament=0.022510
solver_duration=1772.024969
status=Solve_Succeeded
success=true
DataType=double
version=3
OpenSimVersion=4.4-2022-07-23-0e9fedc
endheader
time	/jointset/ground_pelvis/pelvis_tilt/value	/jointset/ground_pelvis/pelvis_tx/value	/jointset/ground_pelvis/pelvis_ty/value	/jointset/hip_r/hip_flexion_r/value	/jointset/hip_r/hip_adduction_r/value	/jointset/hip_r/hip_rotation_r/value	/jointset/back/lumbar_extension/value	/jointset/patellofemoral_r/patellar_flexion_r/value	/jointset/knee_r/knee_flexion_r/value	/jointset/knee_r/knee_adduction_r/value	/jointset/knee_r/knee_rotation_r/value	/jointset/ankle_r/ankle_angle_r/value	/jointset/subtalar_r/subtalar_angle_r/value	/jointset/ground_pelvis/pelvis_tilt/speed	/jointset/ground_pelvis/pelvis_tx/speed	/jointset/ground_pelvis/pelvis_ty/speed	/jointset/hip_r/hip_flexion_r/speed	/jointset/hip_r/hip_adduction_r/speed	/jointset/hip_r/hip_rotation_r/speed	/jointset/back/lumbar_extension/speed	/jointset/patellofemoral_r/patellar_flexion_r/speed	/jointset/knee_r/knee_flexion_r/speed	/jointset/knee_r/knee_adduction_r/speed	/jointset/knee_r/knee_rotation_r/speed	/jointset/ankle_r/ankle_angle_r/speed	/jointset/subtalar_r/subtalar_angle_r/speed	/forceset/tau_hip_flexion_r	/forceset/tau_hip_adduction_r	/forceset/tau_hip_rotation_r	/forceset/tau_knee_flexion_r	/forceset/tau_ankle_angle_r	/forceset/tau_subtalar_angle_r	/forceset/tau_lumbar_extension	lambda_cid13_p0	lambda_cid14_p0	lambda_cid14_p1	lambda_cid14_p2	lambda_cid14_p3	lambda_cid14_p4	lambda_cid14_p5	/jointset/ground_pelvis/pelvis_tilt/accel	/jointset/ground_pelvis/pelvis_tx/accel	/jointset/ground_pelvis/pelvis_ty/accel	/jointset/hip_r/hip_flexion_r/accel	/jointset/hip_r/hip_adduction_r/accel	/jointset/hip_r/hip_rotation_r/accel	/jointset/back/lumbar_extension/accel	/jointset/patellofemoral_r/patellar_flexion_r/accel	/jointset/knee_r/knee_flexion_r/accel	/jointset/knee_r/knee_adduction_r/accel	/jointset/knee_r/knee_rotation_r/accel	/jointset/ankle_r/ankle_angle_r/accel	/jointset/subtalar_r/subtalar_angle_r/accel	gamma_cid13_p0	gamma_cid14_p0	gamma_cid14_p1	gamma_cid14_p2	gamma_cid14_p3	gamma_cid14_p4	gamma_cid14_p5
0.5	-0.1917405235734204	0.007064752648162947	0.8097034628502013	0.9738420617718072	-0.2262049099280397	-0.1119136162415858	-0.3392311663508463	0.8779671561587117	0.8779671561587318	-0.002349578408112693	0.174532599410609	0.2760787708983677	0.06528387667056514	-0.4961492841990996	-0.1708664409013171	-0.5539658194754149	2.163842396512326	0.002584010943573955	0.2446912364055696	-0.5919264580019181	2.17707766753084	2.177077667530838	-0.4099601205511705	0.0001037219788956302	0.6180287966717465	0.1873598672170713	-0.136137234659555	-0.02536685815506678	0.0137611395673234	-0.3682099807991122	0.0977750586700124	-0.002227604686235406	0.1763738759179963	-20.25656787628201	-9.520096400661219	0.2758774725024312	-2.908192384268614	-2.960385477694098	-655.964726539923	64.85386854714142	0.4245018742480354	0.5936193684603863	-0.5694947004943763	-1.329695198383724	-0.1559995488377712	-0.7036936858462355	1.742643514930884	-1.455732005962084	-1.455732005962086	0.4594605593018468	-0.08212842123074972	-0.7341899703891904	-0.2467463071209715	-1.2042035922115e-07	1.813587920809384e-07	3.196887314099415e-06	1.618597304527704e-06	-4.966964965143125e-07	1.983587121274032e-08	1.582232419951497e-06
0.51	-0.1966797404905477	0.005385953707935555	0.8041366326026803	0.9954106782371298	-0.22618735086681	-0.1095054152185474	-0.345062889445251	0.8996619599768042	0.8996619599768448	-0.00642755856893933	0.1745327829233788	0.2822212495359613	0.06714411235687161	-0.491618612981396	-0.164877408748663	-0.5592720535475589	2.149596238901932	0.000931926379913629	0.2368960132996331	-0.5743468929988677	2.16158778853431	2.161587788534305	-0.4056721085565889	-3.611850736724219e-05	0.6103793642256297	0.1846556458505305	-0.1434774530827892	-0.02339531031046857	0.01374361322330919	-0.3721703499516388	0.0945436510592514	-0.001243241803254873	0.1828820608146091	-18.81648939007124	-10.81984253609596	0.3394178225887081	-2.762530386953349	-2.420812285777729	-661.529216354551	64.90448194108843	0.4786763067400719	0.6038610340657922	-0.4919768216108401	-1.514768476219713	-0.1688788554638646	-0.8255259097185954	1.776303174977272	-1.639883777915142	-1.63988377791564	0.4084509517480948	0.02491899761520998	-0.7935395494820965	-0.2864763409910425	-1.434567103453913e-07	4.545868424359841e-08	2.552885532465615e-06	4.969896494102832e-07	-3.285307813780194e-07	-1.020009659043063e-07	1.413364866419885e-06
0.52	-0.2015713853832557	0.003767508268314276	0.7985205822022304	1.01682829463958	-0.2261861258402847	-0.1071767842839173	-0.3507166788532276	0.9211930114186497	0.921193011418707	-0.01046366272337644	0.1745325342033136	0.288284589915542	0.06897646257159858	-0.4866348793153523	-0.1587957407800944	-0.5638098500611639	2.133642383937437	-0.000682795997095278	0.2287772187236466	-0.556339720716412	2.144327192281112	2.144327192281104	-0.4015849192735367	1.72754039406641e-05	0.6022011450691472	0.1817827729011736	-0.1508176715060133	-0.02142376246586777	0.01372608687927218	-0.3761307191041648	0.09131224344849097	-0.0002588789202690412	0.1893902457112314	-17.38249434666955	-12.12320248630941	0.4047713979397854	-2.619949831130831	-1.885312891324214	-667.1544288491825	64.99049090119718	0.5151143639160711	0.6121465316432878	-0.415807188786575	-1.671234669203869	-0.1485271115074875	-0.7684079798562574	1.828164970811901	-1.809875457295658	-1.809875457295656	0.4192960169959457	-0.04348154171659002	-0.8399473124622729	-0.2804766236841614	-1.484038694512087e-07	-2.050197744659028e-08	2.126320102959193e-06	-7.034620826950788e-08	-2.360182339779204e-07	-1.511672296055798e-07	1.246299681507619e-06
0.53	-0.2064110271371606	0.002210309823291963	0.792863062731119	1.038077877710391	-0.2262011442689243	-0.1049286393594769	-0.3561884353345681	0.9425427032030333	0.9425427032030494	-0.01445778821173474	0.1745325617304455	0.2942635007002491	0.07077876990735289	-0.4812266136294106	-0.1526312566662679	-0.5675586501315319	2.115991605777429	-0.002321502224004153	0.2208541147181863	-0.5379583091680776	2.125320047745909	2.1253200477459	-0.3972209386463713	-4.592563208073886e-06	0.5934997735873875	0.1786385316454596	-0.1578215546140338	-0.02016041713212201	0.01367838326762464	-0.3806729113175258	0.08869163492257132	0.0009010300312535307	0.1956351012619718	-15.95797903072654	-13.23119050347252	0.6037633011525334	-2.52516494624159	-1.483842168125084	-672.9545331370629	65.43453705748813	0.5637038750284256	0.6204655998438772	-0.334142710105677	-1.854401905227344	-0.1715644560872491	-0.8041244377168233	1.851119204348845	-1.989771278618677	-1.989771278618851	0.4480963396882607	0.01950210412554948	-0.8974740388922636	-0.3371659986732565	-1.49496587151013e-07	-6.569702558465107e-08	1.784249842434781e-06	-4.645957984931413e-07	-1.680458827022657e-07	-1.781767683050715e-07	1.090672646623485e-06
